<svg width="512" height="512" viewBox="0 0 512 512" fill="none" xmlns="http://www.w3.org/2000/svg">
<rect width="512" height="512" rx="162" fill="black"/>
<path d="M271.57 167.284H285.097V343.156H238.781V221.933L221.792 226.053V180.404L271.57 167.284Z" fill="#A098FF"/>
<path d="M150.803 347.06C101.566 347.06 55.575 310.628 55.575 255.762C55.575 204.042 97.3457 164.248 151.669 164.248C174.178 164.574 198.309 174.441 216.165 190.705L189.544 224.969C178.831 215.21 164.655 208.813 151.777 208.813C124.94 208.813 102.54 229.306 102.54 256.088C102.54 283.195 125.914 303.146 150.803 303.146C165.412 303.146 178.506 296.206 189.76 286.123L216.165 321.362C199.5 336.542 177.316 347.06 150.803 347.06ZM360.523 168.369C419.824 168.152 456.074 201.331 456.074 255.979C456.074 310.194 419.824 343.156 360.523 343.156H303.601V168.477L360.523 168.369ZM359.764 299.459C390.713 299.459 409.653 282.978 409.653 255.871C409.653 228.438 390.605 211.74 359.333 211.74H348.727V299.459H359.764Z" fill="white"/>
<path d="M151.663 164.748C173.897 165.07 197.747 174.763 215.484 190.766L189.477 224.239C178.743 214.62 164.645 208.313 151.777 208.313C124.691 208.313 102.04 229.005 102.04 256.088C102.04 283.502 125.67 303.646 150.804 303.646C165.402 303.646 178.468 296.792 189.685 286.856L215.49 321.296C198.943 336.239 176.997 346.56 150.804 346.56C101.794 346.56 56.075 310.305 56.075 255.762C56.0751 204.343 97.5955 164.752 151.663 164.748ZM360.523 168.869H360.524C390.084 168.76 413.838 176.975 430.198 191.968C446.553 206.956 455.574 228.771 455.574 255.98C455.574 282.971 446.553 304.621 430.199 319.529C413.839 334.441 390.083 342.657 360.522 342.657H304.101V168.976L360.523 168.869ZM348.227 299.959H359.764C375.323 299.959 387.925 295.817 396.643 288.207C405.37 280.591 410.153 269.548 410.153 255.872C410.153 242.033 405.344 230.854 396.55 223.142C387.763 215.437 375.054 211.241 359.333 211.241H348.227V299.959Z" stroke="white" stroke-opacity="0.29"/>
<path d="M284.203 232.125V278.875H374.601V232.125H284.203Z" fill="#A098FF"/>
</svg>
