<svg width="143" height="64" viewBox="0 0 143 64" fill="none" xmlns="http://www.w3.org/2000/svg">
<path d="M76.668 1.80859H81.3066V62H65.4238V20.5117L59.5977 21.9219V6.29883L76.668 1.80859Z" fill="#A098FF"/>
<path d="M35.2539 63.3359C18.3691 63.3359 2.59766 50.8672 2.59766 32.0898C2.59766 14.3887 16.9219 0.769531 35.5508 0.769531C43.2695 0.880859 51.5449 4.25781 57.668 9.82422L48.5391 21.5508C44.8652 18.2109 40.0039 16.0215 35.5879 16.0215C26.3848 16.0215 18.7031 23.0352 18.7031 32.2012C18.7031 41.4785 26.7188 48.3066 35.2539 48.3066C40.2637 48.3066 44.7539 45.9316 48.6133 42.4805L57.668 54.541C51.9531 59.7363 44.3457 63.3359 35.2539 63.3359ZM107.172 2.17969C127.508 2.10547 139.939 13.4609 139.939 32.1641C139.939 50.7188 127.508 62 107.172 62H87.6523V2.2168L107.172 2.17969ZM106.912 47.0449C117.525 47.0449 124.02 41.4043 124.02 32.127C124.02 22.7383 117.488 17.0234 106.764 17.0234H103.127V47.0449H106.912Z" fill="white"/>
<rect x="81" y="40" width="16" height="31" transform="rotate(-90 81 40)" fill="#A098FF"/>
</svg>
